<svg xmlns="http://www.w3.org/2000/svg" xmlns:xlink="http://www.w3.org/1999/xlink" width="500" zoomAndPan="magnify" viewBox="0 0 375 374.999991" height="500" preserveAspectRatio="xMidYMid meet" version="1.0"><defs><g/><clipPath id="031988d86f"><path d="M 112.5 133 L 240 133 L 240 241 L 112.5 241 Z M 112.5 133 " clip-rule="nonzero"/></clipPath></defs><rect x="-37.5" width="450" fill="#ffffff" y="-37.499999" height="449.999989" fill-opacity="1"/><rect x="-37.5" width="450" fill="#ffffff" y="-37.499999" height="449.999989" fill-opacity="1"/><path fill="#000d6b" d="M 186.652344 171.199219 C 186.652344 171.199219 195.46875 170.367188 210.917969 168.710938 C 226.367188 167.050781 226.78125 170.367188 226.78125 170.367188 C 222.476562 170.109375 186.652344 171.199219 186.652344 171.199219 Z M 115.269531 165.53125 C 115.269531 165.53125 125.691406 165.644531 137.699219 166.046875 C 137.699219 166.046875 145.855469 166.039062 147.511719 168.421875 L 158.996094 167.984375 C 158.996094 167.984375 155.546875 163.886719 134.707031 163.316406 L 132.195312 164.585938 C 132.195312 164.585938 127.660156 164.328125 120.816406 164.25 L 119.25 162.777344 C 119.09375 162.628906 118.875 162.566406 118.664062 162.609375 L 116.28125 163.101562 C 116.101562 163.136719 115.960938 163.269531 115.90625 163.441406 Z M 156.585938 147.296875 C 156.585938 147.296875 197.335938 117.28125 228.90625 134.542969 C 228.90625 134.542969 249.125 144.203125 240.105469 175.34375 L 249.882812 175.34375 C 249.882812 175.34375 262.5 139.988281 233.726562 128.324219 C 204.957031 116.660156 165.140625 138.433594 156.585938 147.296875 Z M 209.308594 217.753906 C 209.308594 217.753906 184.582031 240.304688 158.296875 243.726562 C 132.015625 247.148438 120.347656 240.613281 113.195312 225.996094 C 113.195312 225.996094 119.882812 258.34375 168.097656 246.835938 C 168.097656 246.835938 193.601562 240.925781 220.351562 217.753906 Z M 209.308594 217.753906 " fill-opacity="1" fill-rule="nonzero"/><g clip-path="url(#031988d86f)"><path fill="#000d6b" d="M 232.535156 164.390625 C 232.535156 164.390625 229.078125 162.871094 220.851562 161.695312 C 220.851562 161.695312 219.210938 161.453125 215.21875 159.273438 C 211.226562 157.097656 201.914062 151.1875 193.203125 150.566406 C 193.203125 150.566406 184.53125 149.8125 170.375 153.546875 C 170.375 153.546875 177.21875 150.15625 191.320312 149.839844 C 191.320312 149.839844 174.125 148.699219 163.6875 148.90625 C 163.6875 148.90625 154.425781 149.457031 147.929688 151.671875 C 141.433594 153.882812 123.875 159.828125 117.515625 161.140625 C 117.515625 161.140625 126.984375 161.902344 137.007812 161.140625 C 137.007812 161.140625 132.167969 160.726562 130.648438 158.652344 L 148.964844 152.429688 C 148.964844 152.429688 150.882812 151.722656 153.113281 151.878906 C 153.113281 151.878906 163.6875 151.550781 169.390625 153.417969 C 169.390625 153.417969 159.074219 158.703125 139.945312 161.867188 C 139.945312 161.867188 143.78125 163.28125 162.582031 162.886719 C 179.722656 162.523438 214.425781 163.488281 220.785156 164.042969 C 220.785156 164.042969 228.386719 164.734375 231.359375 166.738281 C 231.359375 166.738281 226.589844 169.503906 226.796875 175.519531 C 226.796875 175.519531 229.839844 168.535156 233.710938 168.675781 C 237.582031 168.8125 239.171875 175.519531 239.171875 175.519531 C 239.171875 175.519531 241.242188 167.914062 232.535156 164.390625 Z M 181.246094 160.621094 C 178.6875 160.621094 176.960938 160.101562 176.300781 159.757812 C 175.644531 159.410156 174.746094 158.582031 173.953125 157.648438 C 173.15625 156.714844 173.78125 156.300781 173.78125 156.300781 C 181.417969 151.910156 189.503906 151.84375 189.503906 151.84375 C 193.132812 155.851562 195.089844 161.207031 195.089844 161.207031 C 195.089844 161.207031 183.804688 160.621094 181.246094 160.621094 Z M 198.355469 161.210938 C 196.140625 155.75 191.71875 151.84375 191.71875 151.84375 C 203.785156 152.140625 216.742188 161.96875 216.742188 161.96875 Z M 114.714844 166.429688 C 114.714844 166.429688 114.058594 167.949219 112.503906 169.675781 C 112.503906 169.675781 112.503906 173.617188 113.609375 175.34375 C 113.609375 175.34375 114.636719 173.417969 114.671875 171.207031 L 121.019531 171.507812 C 121.019531 171.507812 117.753906 171.820312 118.273438 175.035156 C 118.273438 175.035156 118.117188 172.441406 121.851562 172.648438 C 125.582031 172.859375 130.507812 172.285156 132.113281 175.136719 C 132.113281 175.136719 132.488281 172.359375 125.425781 171.871094 C 125.425781 171.871094 145.957031 172.078125 150.570312 171.558594 C 150.570312 171.558594 124.441406 170.886719 114.953125 169.28125 C 114.957031 169.28125 115.078125 168.242188 114.714844 166.429688 Z M 170.53125 175.34375 C 170.53125 175.34375 172.5 172.699219 176.339844 172.910156 C 180.175781 173.117188 180.953125 174.621094 181.679688 175.34375 L 184.011719 175.34375 C 184.011719 175.34375 181.886719 170.679688 176.390625 170.628906 C 170.894531 170.574219 168.820312 174.046875 168.300781 175.34375 Z M 234.347656 147.765625 C 234.347656 147.765625 228.042969 130.789062 200.390625 133.558594 C 200.390625 133.558594 180.691406 135.324219 163.894531 146.105469 L 173.175781 146.105469 C 173.175781 146.105469 214.285156 122.570312 234.347656 147.765625 Z M 116.304688 217.753906 C 116.304688 217.753906 118.480469 236.832031 140.671875 240.25 C 162.859375 243.671875 184.320312 231.542969 192.410156 226.460938 C 192.410156 226.460938 164.726562 243.050781 141.1875 235.898438 C 141.1875 235.898438 126.152344 231.128906 124.390625 217.753906 Z M 116.304688 217.753906 " fill-opacity="1" fill-rule="nonzero"/></g><g fill="#000d6b" fill-opacity="1"><g transform="translate(120.828849, 207.133748)"><g><path d="M 11.875 -23 C 13.519531 -23 14.925781 -22.695312 16.09375 -22.09375 C 17.269531 -21.488281 18.15625 -20.644531 18.75 -19.5625 C 19.351562 -18.476562 19.65625 -17.21875 19.65625 -15.78125 C 19.65625 -14.34375 19.351562 -13.082031 18.75 -12 C 18.15625 -10.925781 17.269531 -10.085938 16.09375 -9.484375 C 14.925781 -8.878906 13.519531 -8.578125 11.875 -8.578125 L 7.53125 -8.578125 L 7.53125 0 L 2.984375 0 L 2.984375 -23 Z M 11.28125 -12.171875 C 13.8125 -12.171875 15.078125 -13.375 15.078125 -15.78125 C 15.078125 -18.1875 13.8125 -19.390625 11.28125 -19.390625 L 7.53125 -19.390625 L 7.53125 -12.171875 Z M 11.28125 -12.171875 "/></g></g></g><g fill="#000d6b" fill-opacity="1"><g transform="translate(141.846985, 207.133748)"><g><path d="M 12.53125 0.328125 C 10.425781 0.328125 8.566406 -0.0976562 6.953125 -0.953125 C 5.347656 -1.816406 4.085938 -3.128906 3.171875 -4.890625 C 2.265625 -6.660156 1.8125 -8.863281 1.8125 -11.5 C 1.8125 -14.132812 2.265625 -16.332031 3.171875 -18.09375 C 4.085938 -19.863281 5.347656 -21.175781 6.953125 -22.03125 C 8.566406 -22.894531 10.425781 -23.328125 12.53125 -23.328125 C 14.644531 -23.328125 16.503906 -22.898438 18.109375 -22.046875 C 19.710938 -21.191406 20.96875 -19.878906 21.875 -18.109375 C 22.78125 -16.335938 23.234375 -14.132812 23.234375 -11.5 C 23.234375 -8.863281 22.78125 -6.660156 21.875 -4.890625 C 20.96875 -3.117188 19.710938 -1.804688 18.109375 -0.953125 C 16.503906 -0.0976562 14.644531 0.328125 12.53125 0.328125 Z M 12.53125 -3.625 C 14.488281 -3.625 15.976562 -4.25 17 -5.5 C 18.03125 -6.75 18.546875 -8.75 18.546875 -11.5 C 18.546875 -14.25 18.03125 -16.25 17 -17.5 C 15.976562 -18.757812 14.488281 -19.390625 12.53125 -19.390625 C 10.570312 -19.390625 9.078125 -18.757812 8.046875 -17.5 C 7.015625 -16.25 6.5 -14.25 6.5 -11.5 C 6.5 -8.75 7.015625 -6.75 8.046875 -5.5 C 9.078125 -4.25 10.570312 -3.625 12.53125 -3.625 Z M 12.53125 -3.625 "/></g></g></g><g fill="#000d6b" fill-opacity="1"><g transform="translate(166.908285, 207.133748)"><g><path d="M 13.671875 0 L 8.1875 0 L 0.40625 -23 L 5.234375 -23 L 10.828125 -5.859375 L 11.21875 -5.859375 L 16.71875 -23 L 21.421875 -23 Z M 13.671875 0 "/></g></g></g><g fill="#000d6b" fill-opacity="1"><g transform="translate(188.744493, 207.133748)"><g><path d="M 7.53125 -10.09375 L 7.53125 -3.8125 L 18.515625 -3.8125 L 18.515625 0 L 2.984375 0 L 2.984375 -23 L 18.265625 -23 L 18.265625 -19.1875 L 7.53125 -19.1875 L 7.53125 -13.8125 L 16.90625 -13.8125 L 16.90625 -10.09375 Z M 7.53125 -10.09375 "/></g></g></g><g fill="#000d6b" fill-opacity="1"><g transform="translate(208.519795, 207.133748)"><g><path d="M 2.984375 0 L 2.984375 -23 L 12.21875 -23 C 14.601562 -23 16.398438 -22.453125 17.609375 -21.359375 C 18.816406 -20.265625 19.421875 -18.75 19.421875 -16.8125 C 19.421875 -15.414062 19.066406 -14.269531 18.359375 -13.375 C 17.660156 -12.488281 16.609375 -11.8125 15.203125 -11.34375 L 15.203125 -11.015625 C 15.921875 -10.703125 16.503906 -10.234375 16.953125 -9.609375 C 17.398438 -8.992188 17.820312 -8.078125 18.21875 -6.859375 L 20.515625 0 L 15.84375 0 L 13.59375 -6.875 C 13.363281 -7.5625 13.101562 -8.097656 12.8125 -8.484375 C 12.519531 -8.867188 12.148438 -9.144531 11.703125 -9.3125 C 11.265625 -9.488281 10.6875 -9.578125 9.96875 -9.578125 L 7.53125 -9.578125 L 7.53125 0 Z M 11.671875 -13.1875 C 13.878906 -13.1875 14.984375 -14.210938 14.984375 -16.265625 C 14.984375 -18.347656 13.878906 -19.390625 11.671875 -19.390625 L 7.53125 -19.390625 L 7.53125 -13.1875 Z M 11.671875 -13.1875 "/></g></g></g></svg>